<svg width="47" height="45" viewBox="0 0 47 45" fill="none" xmlns="http://www.w3.org/2000/svg">
<rect width="47" height="45" rx="8" fill="#E4E4E4" fill-opacity="0.52"/>
<path d="M14.9286 22.5H21.3571" stroke="#5F5F5F" stroke-linecap="round" stroke-linejoin="round"/>
<path d="M14.9286 29.2415H27.7857" stroke="#5F5F5F" stroke-linecap="round" stroke-linejoin="round"/>
<path d="M25.6429 22.5H32.0714" stroke="#5F5F5F" stroke-linecap="round" stroke-linejoin="round"/>
<path d="M32.0714 15.7586H19.2143" stroke="#5F5F5F" stroke-linecap="round" stroke-linejoin="round"/>
<path d="M14.9286 15.7586C14.9286 17.13 15.7 17.9014 17.0714 17.9014C18.4429 17.9014 19.2143 17.13 19.2143 15.7586C19.2143 14.3872 18.4429 13.6157 17.0714 13.6157C15.7 13.6157 14.9286 14.3872 14.9286 15.7586Z" stroke="#5F5F5F" stroke-linecap="round" stroke-linejoin="round"/>
<path d="M27.7857 29.2414C27.7857 30.6129 28.5571 31.3843 29.9286 31.3843C31.3 31.3843 32.0714 30.6129 32.0714 29.2414C32.0714 27.87 31.3 27.0986 29.9286 27.0986C28.5571 27.0986 27.7857 27.87 27.7857 29.2414Z" stroke="#5F5F5F" stroke-linecap="round" stroke-linejoin="round"/>
<path d="M21.39 22.5C21.39 23.8715 22.1614 24.6429 23.5329 24.6429C24.9043 24.6429 25.6757 23.8715 25.6757 22.5C25.6757 21.1286 24.9043 20.3572 23.5329 20.3572C22.1614 20.3572 21.39 21.1286 21.39 22.5Z" stroke="#5F5F5F" stroke-linecap="round" stroke-linejoin="round"/>
</svg>
